<svg width="156" height="44" viewBox="0 0 156 44" fill="none" xmlns="http://www.w3.org/2000/svg">
<path d="M16.6424 6.5V19.0676H5.35759V6.5H0V36.5H5.35759V24.3405H16.6424V36.5H22V6.5H16.6424V6.5Z" fill="#213343"/>
<path d="M40.0957 26.7089C40.0957 29.1912 38.0901 31.2035 35.616 31.2035C33.142 31.2035 31.1363 29.1912 31.1363 26.7089V13.9692H26V26.7089C26 32.0322 30.3011 36.3475 35.6067 36.3475C40.9124 36.3475 45.2135 32.0322 45.2135 26.7089V13.9692H40.0957V26.7089Z" fill="#213343"/>
<path d="M78.1515 15.2815C78.1515 12.6702 79.8733 11.8424 81.7596 11.8424C83.2798 11.8424 85.2882 13.0029 86.6015 14.4111L89.9656 10.4342C88.2862 8.15566 84.8796 6.57983 82.0913 6.57983C76.5198 6.57983 72.4898 9.85393 72.4898 15.2815C72.4898 25.3513 84.7576 22.1571 84.7576 27.7923C84.7576 29.5305 83.0756 31.0664 81.1494 31.0664C78.1117 31.0664 77.1274 29.5757 75.7319 27.9999L71.999 31.8942C74.3868 34.8356 77.3317 36.3289 80.8602 36.3289C86.1531 36.3289 90.4113 33.0149 90.4113 27.8349C90.4113 16.655 78.1435 20.1288 78.1435 15.2815" fill="#213343"/>
<path d="M154.045 31.5721C151.01 31.5721 150.147 30.2545 150.147 28.2368V19.3062H154.865V14.7811H150.147V8.81049L144.939 11.1556V29.3468C144.939 33.9998 148.139 36.3449 152.527 36.3449C153.215 36.3575 153.903 36.3022 154.581 36.1798L155.851 31.487C155.278 31.5269 154.62 31.5668 154.045 31.5668" fill="#213343"/>
<path fill-rule="evenodd" clip-rule="evenodd" d="M53.6101 16.5485C55.3266 14.8583 57.1015 14.1183 59.6458 14.1183V14.1209C65.3897 14.1209 70.3297 18.9389 70.3297 25.2369C70.3297 31.6147 64.9626 36.3502 58.8605 36.3502C53.3607 36.3502 48.4658 31.6972 48.4658 24.9042V6.75818H53.6101V16.5485ZM53.7772 25.3008C53.7772 28.535 56.3904 31.1569 59.614 31.1569C62.8375 31.1569 65.4507 28.535 65.4507 25.3008C65.4507 22.0665 62.8375 19.4447 59.614 19.4447C56.3904 19.4447 53.7772 22.0665 53.7772 25.3008Z" fill="#213343"/>
<path fill-rule="evenodd" clip-rule="evenodd" d="M104.034 13.8521C110.147 13.8521 115.504 18.5769 115.504 24.9654H115.501C115.501 31.266 110.561 36.0813 104.817 36.0813C102.275 36.0813 100.498 35.3387 98.7839 33.651V43.4547H93.6396V25.2981C93.6396 18.505 98.5345 13.8521 104.034 13.8521ZM104.796 30.7576C108.019 30.7576 110.633 28.1357 110.633 24.9015C110.633 21.6672 108.019 19.0454 104.796 19.0454C101.572 19.0454 98.959 21.6672 98.959 24.9015C98.959 28.1357 101.572 30.7576 104.796 30.7576Z" fill="#213343"/>
<path fill-rule="evenodd" clip-rule="evenodd" d="M131.506 9.53319V14.651C136.128 15.3661 139.82 18.8792 140.767 23.4633C141.714 28.0473 139.717 32.7381 135.758 35.2294C131.798 37.7208 126.709 37.4887 122.992 34.6472L118.836 38.8068C118.944 39.1442 119.001 39.4958 119.006 39.85C119.006 41.3262 118.117 42.6571 116.754 43.2221C115.392 43.787 113.823 43.4747 112.78 42.4309C111.737 41.387 111.425 39.8171 111.99 38.4532C112.554 37.0893 113.884 36.2001 115.359 36.2001C115.713 36.2053 116.064 36.2625 116.401 36.37L120.602 32.1653C117.954 28.3938 117.885 23.383 120.43 19.5406L106.625 8.78462C105.959 9.17302 105.203 9.37901 104.432 9.38188C101.981 9.37895 99.9971 7.38829 100 4.93563C100.003 2.48297 101.992 0.497072 104.442 0.500003C106.893 0.502935 108.877 2.49359 108.874 4.94625C108.869 5.3205 108.815 5.69248 108.715 6.05317L122.756 16.987C124.288 15.7542 126.117 14.9484 128.06 14.651V9.53319C126.681 8.88839 125.797 7.50521 125.79 5.98149V5.86204C125.796 3.69034 127.553 1.93129 129.723 1.92545H129.843C132.012 1.93129 133.77 3.69034 133.776 5.86204V5.98149C133.769 7.50521 132.885 8.88839 131.506 9.53319ZM124.034 25.7308C124.034 28.9092 126.609 31.4857 129.784 31.4857C132.96 31.4857 135.534 28.9092 135.534 25.7308C135.534 22.5525 132.96 19.9759 129.784 19.9759C126.609 19.9759 124.034 22.5525 124.034 25.7308Z" fill="#FF5C35"/>
</svg>
